<svg version="1.1" xmlns="http://www.w3.org/2000/svg" xmlns:xlink="http://www.w3.org/1999/xlink" width="724.2353515625" height="460"><defs/><g><text fill="#eeeeee" stroke="none" font-family="Arial" font-size="24px" font-style="normal" font-weight="normal" text-decoration="none" x="0" y="0">UNREGISTERED</text><text fill="#eeeeee" stroke="none" font-family="Arial" font-size="24px" font-style="normal" font-weight="normal" text-decoration="none" x="0" y="30">UNREGISTERED</text><text fill="#eeeeee" stroke="none" font-family="Arial" font-size="24px" font-style="normal" font-weight="normal" text-decoration="none" x="0" y="60">UNREGISTERED</text><text fill="#eeeeee" stroke="none" font-family="Arial" font-size="24px" font-style="normal" font-weight="normal" text-decoration="none" x="0" y="90">UNREGISTERED</text><text fill="#eeeeee" stroke="none" font-family="Arial" font-size="24px" font-style="normal" font-weight="normal" text-decoration="none" x="0" y="120">UNREGISTERED</text><text fill="#eeeeee" stroke="none" font-family="Arial" font-size="24px" font-style="normal" font-weight="normal" text-decoration="none" x="0" y="150">UNREGISTERED</text><text fill="#eeeeee" stroke="none" font-family="Arial" font-size="24px" font-style="normal" font-weight="normal" text-decoration="none" x="0" y="180">UNREGISTERED</text><text fill="#eeeeee" stroke="none" font-family="Arial" font-size="24px" font-style="normal" font-weight="normal" text-decoration="none" x="0" y="210">UNREGISTERED</text><text fill="#eeeeee" stroke="none" font-family="Arial" font-size="24px" font-style="normal" font-weight="normal" text-decoration="none" x="0" y="240">UNREGISTERED</text><text fill="#eeeeee" stroke="none" font-family="Arial" font-size="24px" font-style="normal" font-weight="normal" text-decoration="none" x="0" y="270">UNREGISTERED</text><text fill="#eeeeee" stroke="none" font-family="Arial" font-size="24px" font-style="normal" font-weight="normal" text-decoration="none" x="0" y="300">UNREGISTERED</text><text fill="#eeeeee" stroke="none" font-family="Arial" font-size="24px" font-style="normal" font-weight="normal" text-decoration="none" x="0" y="330">UNREGISTERED</text><text fill="#eeeeee" stroke="none" font-family="Arial" font-size="24px" font-style="normal" font-weight="normal" text-decoration="none" x="0" y="360">UNREGISTERED</text><text fill="#eeeeee" stroke="none" font-family="Arial" font-size="24px" font-style="normal" font-weight="normal" text-decoration="none" x="0" y="390">UNREGISTERED</text><text fill="#eeeeee" stroke="none" font-family="Arial" font-size="24px" font-style="normal" font-weight="normal" text-decoration="none" x="0" y="420">UNREGISTERED</text><text fill="#eeeeee" stroke="none" font-family="Arial" font-size="24px" font-style="normal" font-weight="normal" text-decoration="none" x="0" y="450">UNREGISTERED</text><text fill="#eeeeee" stroke="none" font-family="Arial" font-size="24px" font-style="normal" font-weight="normal" text-decoration="none" x="200" y="0">UNREGISTERED</text><text fill="#eeeeee" stroke="none" font-family="Arial" font-size="24px" font-style="normal" font-weight="normal" text-decoration="none" x="200" y="30">UNREGISTERED</text><text fill="#eeeeee" stroke="none" font-family="Arial" font-size="24px" font-style="normal" font-weight="normal" text-decoration="none" x="200" y="60">UNREGISTERED</text><text fill="#eeeeee" stroke="none" font-family="Arial" font-size="24px" font-style="normal" font-weight="normal" text-decoration="none" x="200" y="90">UNREGISTERED</text><text fill="#eeeeee" stroke="none" font-family="Arial" font-size="24px" font-style="normal" font-weight="normal" text-decoration="none" x="200" y="120">UNREGISTERED</text><text fill="#eeeeee" stroke="none" font-family="Arial" font-size="24px" font-style="normal" font-weight="normal" text-decoration="none" x="200" y="150">UNREGISTERED</text><text fill="#eeeeee" stroke="none" font-family="Arial" font-size="24px" font-style="normal" font-weight="normal" text-decoration="none" x="200" y="180">UNREGISTERED</text><text fill="#eeeeee" stroke="none" font-family="Arial" font-size="24px" font-style="normal" font-weight="normal" text-decoration="none" x="200" y="210">UNREGISTERED</text><text fill="#eeeeee" stroke="none" font-family="Arial" font-size="24px" font-style="normal" font-weight="normal" text-decoration="none" x="200" y="240">UNREGISTERED</text><text fill="#eeeeee" stroke="none" font-family="Arial" font-size="24px" font-style="normal" font-weight="normal" text-decoration="none" x="200" y="270">UNREGISTERED</text><text fill="#eeeeee" stroke="none" font-family="Arial" font-size="24px" font-style="normal" font-weight="normal" text-decoration="none" x="200" y="300">UNREGISTERED</text><text fill="#eeeeee" stroke="none" font-family="Arial" font-size="24px" font-style="normal" font-weight="normal" text-decoration="none" x="200" y="330">UNREGISTERED</text><text fill="#eeeeee" stroke="none" font-family="Arial" font-size="24px" font-style="normal" font-weight="normal" text-decoration="none" x="200" y="360">UNREGISTERED</text><text fill="#eeeeee" stroke="none" font-family="Arial" font-size="24px" font-style="normal" font-weight="normal" text-decoration="none" x="200" y="390">UNREGISTERED</text><text fill="#eeeeee" stroke="none" font-family="Arial" font-size="24px" font-style="normal" font-weight="normal" text-decoration="none" x="200" y="420">UNREGISTERED</text><text fill="#eeeeee" stroke="none" font-family="Arial" font-size="24px" font-style="normal" font-weight="normal" text-decoration="none" x="200" y="450">UNREGISTERED</text><text fill="#eeeeee" stroke="none" font-family="Arial" font-size="24px" font-style="normal" font-weight="normal" text-decoration="none" x="400" y="0">UNREGISTERED</text><text fill="#eeeeee" stroke="none" font-family="Arial" font-size="24px" font-style="normal" font-weight="normal" text-decoration="none" x="400" y="30">UNREGISTERED</text><text fill="#eeeeee" stroke="none" font-family="Arial" font-size="24px" font-style="normal" font-weight="normal" text-decoration="none" x="400" y="60">UNREGISTERED</text><text fill="#eeeeee" stroke="none" font-family="Arial" font-size="24px" font-style="normal" font-weight="normal" text-decoration="none" x="400" y="90">UNREGISTERED</text><text fill="#eeeeee" stroke="none" font-family="Arial" font-size="24px" font-style="normal" font-weight="normal" text-decoration="none" x="400" y="120">UNREGISTERED</text><text fill="#eeeeee" stroke="none" font-family="Arial" font-size="24px" font-style="normal" font-weight="normal" text-decoration="none" x="400" y="150">UNREGISTERED</text><text fill="#eeeeee" stroke="none" font-family="Arial" font-size="24px" font-style="normal" font-weight="normal" text-decoration="none" x="400" y="180">UNREGISTERED</text><text fill="#eeeeee" stroke="none" font-family="Arial" font-size="24px" font-style="normal" font-weight="normal" text-decoration="none" x="400" y="210">UNREGISTERED</text><text fill="#eeeeee" stroke="none" font-family="Arial" font-size="24px" font-style="normal" font-weight="normal" text-decoration="none" x="400" y="240">UNREGISTERED</text><text fill="#eeeeee" stroke="none" font-family="Arial" font-size="24px" font-style="normal" font-weight="normal" text-decoration="none" x="400" y="270">UNREGISTERED</text><text fill="#eeeeee" stroke="none" font-family="Arial" font-size="24px" font-style="normal" font-weight="normal" text-decoration="none" x="400" y="300">UNREGISTERED</text><text fill="#eeeeee" stroke="none" font-family="Arial" font-size="24px" font-style="normal" font-weight="normal" text-decoration="none" x="400" y="330">UNREGISTERED</text><text fill="#eeeeee" stroke="none" font-family="Arial" font-size="24px" font-style="normal" font-weight="normal" text-decoration="none" x="400" y="360">UNREGISTERED</text><text fill="#eeeeee" stroke="none" font-family="Arial" font-size="24px" font-style="normal" font-weight="normal" text-decoration="none" x="400" y="390">UNREGISTERED</text><text fill="#eeeeee" stroke="none" font-family="Arial" font-size="24px" font-style="normal" font-weight="normal" text-decoration="none" x="400" y="420">UNREGISTERED</text><text fill="#eeeeee" stroke="none" font-family="Arial" font-size="24px" font-style="normal" font-weight="normal" text-decoration="none" x="400" y="450">UNREGISTERED</text><text fill="#eeeeee" stroke="none" font-family="Arial" font-size="24px" font-style="normal" font-weight="normal" text-decoration="none" x="600" y="0">UNREGISTERED</text><text fill="#eeeeee" stroke="none" font-family="Arial" font-size="24px" font-style="normal" font-weight="normal" text-decoration="none" x="600" y="30">UNREGISTERED</text><text fill="#eeeeee" stroke="none" font-family="Arial" font-size="24px" font-style="normal" font-weight="normal" text-decoration="none" x="600" y="60">UNREGISTERED</text><text fill="#eeeeee" stroke="none" font-family="Arial" font-size="24px" font-style="normal" font-weight="normal" text-decoration="none" x="600" y="90">UNREGISTERED</text><text fill="#eeeeee" stroke="none" font-family="Arial" font-size="24px" font-style="normal" font-weight="normal" text-decoration="none" x="600" y="120">UNREGISTERED</text><text fill="#eeeeee" stroke="none" font-family="Arial" font-size="24px" font-style="normal" font-weight="normal" text-decoration="none" x="600" y="150">UNREGISTERED</text><text fill="#eeeeee" stroke="none" font-family="Arial" font-size="24px" font-style="normal" font-weight="normal" text-decoration="none" x="600" y="180">UNREGISTERED</text><text fill="#eeeeee" stroke="none" font-family="Arial" font-size="24px" font-style="normal" font-weight="normal" text-decoration="none" x="600" y="210">UNREGISTERED</text><text fill="#eeeeee" stroke="none" font-family="Arial" font-size="24px" font-style="normal" font-weight="normal" text-decoration="none" x="600" y="240">UNREGISTERED</text><text fill="#eeeeee" stroke="none" font-family="Arial" font-size="24px" font-style="normal" font-weight="normal" text-decoration="none" x="600" y="270">UNREGISTERED</text><text fill="#eeeeee" stroke="none" font-family="Arial" font-size="24px" font-style="normal" font-weight="normal" text-decoration="none" x="600" y="300">UNREGISTERED</text><text fill="#eeeeee" stroke="none" font-family="Arial" font-size="24px" font-style="normal" font-weight="normal" text-decoration="none" x="600" y="330">UNREGISTERED</text><text fill="#eeeeee" stroke="none" font-family="Arial" font-size="24px" font-style="normal" font-weight="normal" text-decoration="none" x="600" y="360">UNREGISTERED</text><text fill="#eeeeee" stroke="none" font-family="Arial" font-size="24px" font-style="normal" font-weight="normal" text-decoration="none" x="600" y="390">UNREGISTERED</text><text fill="#eeeeee" stroke="none" font-family="Arial" font-size="24px" font-style="normal" font-weight="normal" text-decoration="none" x="600" y="420">UNREGISTERED</text><text fill="#eeeeee" stroke="none" font-family="Arial" font-size="24px" font-style="normal" font-weight="normal" text-decoration="none" x="600" y="450">UNREGISTERED</text><g transform="translate(-110,-54) scale(1,1)"><rect fill="#C0C0C0" stroke="none" x="343" y="231" width="79.458984375" height="117" opacity="0.2"/></g><g transform="translate(-110,-54) scale(1,1)"><rect fill="#ffffff" stroke="none" x="336" y="224" width="79.458984375" height="117"/></g><g transform="translate(-110,-54) scale(1,1)"><path fill="none" stroke="#000000" d="M 336 224 L 415.458984375 224 L 415.458984375 341 L 336 341 L 336 224 Z Z" stroke-miterlimit="10"/></g><g transform="translate(-110,-54) scale(1,1)"><path fill="none" stroke="#000000" d="M 336 249 L 415.458984375 249" stroke-miterlimit="10"/></g><g transform="translate(-110,-54) scale(1,1)"><path fill="none" stroke="#000000" d="M 336 332 L 415.458984375 332" stroke-miterlimit="10"/></g><g transform="translate(-110,-54) scale(1,1)"><g><path fill="none" stroke="none"/><text fill="#000000" stroke="none" font-family="Arial" font-size="13px" font-style="normal" font-weight="bold" text-decoration="none" x="361.399658203125" y="243.5">Offre</text></g></g><g transform="translate(-110,-54) scale(1,1)"><g><path fill="none" stroke="none"/><text fill="#000000" stroke="none" font-family="Arial" font-size="13px" font-style="normal" font-weight="normal" text-decoration="none" x="341" y="266.5">+subject</text></g></g><g transform="translate(-110,-54) scale(1,1)"><g><path fill="none" stroke="none"/><text fill="#000000" stroke="none" font-family="Arial" font-size="13px" font-style="normal" font-weight="normal" text-decoration="none" x="341" y="281.5">+description</text></g></g><g transform="translate(-110,-54) scale(1,1)"><g><path fill="none" stroke="none"/><text fill="#000000" stroke="none" font-family="Arial" font-size="13px" font-style="normal" font-weight="normal" text-decoration="none" x="341" y="296.5">+periode</text></g></g><g transform="translate(-110,-54) scale(1,1)"><g><path fill="none" stroke="none"/><text fill="#000000" stroke="none" font-family="Arial" font-size="13px" font-style="normal" font-weight="normal" text-decoration="none" x="341" y="311.5">+region</text></g></g><g transform="translate(-110,-54) scale(1,1)"><g><path fill="none" stroke="none"/><text fill="#000000" stroke="none" font-family="Arial" font-size="13px" font-style="normal" font-weight="normal" text-decoration="none" x="341" y="326.5">+demandes</text></g></g><g transform="translate(-110,-54) scale(1,1)"><rect fill="#C0C0C0" stroke="none" x="351" y="439" width="72.2353515625" height="72" opacity="0.2"/></g><g transform="translate(-110,-54) scale(1,1)"><rect fill="#ffffff" stroke="none" x="344" y="432" width="72.2353515625" height="72"/></g><g transform="translate(-110,-54) scale(1,1)"><path fill="none" stroke="#000000" d="M 344 432 L 416.2353515625 432 L 416.2353515625 504 L 344 504 L 344 432 Z Z" stroke-miterlimit="10"/></g><g transform="translate(-110,-54) scale(1,1)"><path fill="none" stroke="#000000" d="M 344 457 L 416.2353515625 457" stroke-miterlimit="10"/></g><g transform="translate(-110,-54) scale(1,1)"><path fill="none" stroke="#000000" d="M 344 495 L 416.2353515625 495" stroke-miterlimit="10"/></g><g transform="translate(-110,-54) scale(1,1)"><g><path fill="none" stroke="none"/><text fill="#000000" stroke="none" font-family="Arial" font-size="13px" font-style="normal" font-weight="bold" text-decoration="none" x="359.15771484375" y="451.5">Techno</text></g></g><g transform="translate(-110,-54) scale(1,1)"><g><path fill="none" stroke="none"/><text fill="#000000" stroke="none" font-family="Arial" font-size="13px" font-style="normal" font-weight="normal" text-decoration="none" x="349" y="474.5">+id</text></g></g><g transform="translate(-110,-54) scale(1,1)"><g><path fill="none" stroke="none"/><text fill="#000000" stroke="none" font-family="Arial" font-size="13px" font-style="normal" font-weight="normal" text-decoration="none" x="349" y="489.5">+nom</text></g></g><g transform="translate(-110,-54) scale(1,1)"><rect fill="#C0C0C0" stroke="none" x="359" y="71" width="72.2353515625" height="57" opacity="0.2"/></g><g transform="translate(-110,-54) scale(1,1)"><rect fill="#ffffff" stroke="none" x="352" y="64" width="72.2353515625" height="57"/></g><g transform="translate(-110,-54) scale(1,1)"><path fill="none" stroke="#000000" d="M 352 64 L 424.2353515625 64 L 424.2353515625 121 L 352 121 L 352 64 Z Z" stroke-miterlimit="10"/></g><g transform="translate(-110,-54) scale(1,1)"><path fill="none" stroke="#000000" d="M 352 89 L 424.2353515625 89" stroke-miterlimit="10"/></g><g transform="translate(-110,-54) scale(1,1)"><path fill="none" stroke="#000000" d="M 352 112 L 424.2353515625 112" stroke-miterlimit="10"/></g><g transform="translate(-110,-54) scale(1,1)"><g><path fill="none" stroke="none"/><text fill="#000000" stroke="none" font-family="Arial" font-size="13px" font-style="normal" font-weight="bold" text-decoration="none" x="377.27587890625" y="83.5">Info</text></g></g><g transform="translate(-110,-54) scale(1,1)"><g><path fill="none" stroke="none"/><text fill="#000000" stroke="none" font-family="Arial" font-size="13px" font-style="normal" font-weight="normal" text-decoration="none" x="357" y="106.5">+offres</text></g></g><g transform="translate(-110,-54) scale(1,1)"><rect fill="#C0C0C0" stroke="none" x="543" y="239" width="72.2353515625" height="87" opacity="0.2"/></g><g transform="translate(-110,-54) scale(1,1)"><rect fill="#ffffff" stroke="none" x="536" y="232" width="72.2353515625" height="87"/></g><g transform="translate(-110,-54) scale(1,1)"><path fill="none" stroke="#000000" d="M 536 232 L 608.2353515625 232 L 608.2353515625 319 L 536 319 L 536 232 Z Z" stroke-miterlimit="10"/></g><g transform="translate(-110,-54) scale(1,1)"><path fill="none" stroke="#000000" d="M 536 257 L 608.2353515625 257" stroke-miterlimit="10"/></g><g transform="translate(-110,-54) scale(1,1)"><path fill="none" stroke="#000000" d="M 536 280 L 608.2353515625 280" stroke-miterlimit="10"/></g><g transform="translate(-110,-54) scale(1,1)"><g><path fill="none" stroke="none"/><text fill="#000000" stroke="none" font-family="Arial" font-size="13px" font-style="normal" font-weight="bold" text-decoration="none" x="543.93408203125" y="251.5">Demande</text></g></g><g transform="translate(-110,-54) scale(1,1)"><g><path fill="none" stroke="none"/><text fill="#000000" stroke="none" font-family="Arial" font-size="13px" font-style="normal" font-weight="normal" text-decoration="none" x="541" y="274.5">+date</text></g></g><g transform="translate(-110,-54) scale(1,1)"><rect fill="#C0C0C0" stroke="none" x="127" y="247" width="81.6171875" height="87" opacity="0.2"/></g><g transform="translate(-110,-54) scale(1,1)"><rect fill="#ffffff" stroke="none" x="120" y="240" width="81.6171875" height="87"/></g><g transform="translate(-110,-54) scale(1,1)"><path fill="none" stroke="#000000" d="M 120 240 L 201.6171875 240 L 201.6171875 327 L 120 327 L 120 240 Z Z" stroke-miterlimit="10"/></g><g transform="translate(-110,-54) scale(1,1)"><path fill="none" stroke="#000000" d="M 120 265 L 201.6171875 265" stroke-miterlimit="10"/></g><g transform="translate(-110,-54) scale(1,1)"><path fill="none" stroke="#000000" d="M 120 318 L 201.6171875 318" stroke-miterlimit="10"/></g><g transform="translate(-110,-54) scale(1,1)"><g><path fill="none" stroke="none"/><text fill="#000000" stroke="none" font-family="Arial" font-size="13px" font-style="normal" font-weight="bold" text-decoration="none" x="131.18408203125" y="259.5">Entreprise</text></g></g><g transform="translate(-110,-54) scale(1,1)"><g><path fill="none" stroke="none"/><text fill="#000000" stroke="none" font-family="Arial" font-size="13px" font-style="normal" font-weight="normal" text-decoration="none" x="125" y="282.5">+nom</text></g></g><g transform="translate(-110,-54) scale(1,1)"><g><path fill="none" stroke="none"/><text fill="#000000" stroke="none" font-family="Arial" font-size="13px" font-style="normal" font-weight="normal" text-decoration="none" x="125" y="297.5">+description</text></g></g><g transform="translate(-110,-54) scale(1,1)"><g><path fill="none" stroke="none"/><text fill="#000000" stroke="none" font-family="Arial" font-size="13px" font-style="normal" font-weight="normal" text-decoration="none" x="125" y="312.5">+adresse</text></g></g><g transform="translate(-110,-54) scale(1,1)"><rect fill="#C0C0C0" stroke="none" x="759" y="231" width="72.2353515625" height="102" opacity="0.2"/></g><g transform="translate(-110,-54) scale(1,1)"><rect fill="#ffffff" stroke="none" x="752" y="224" width="72.2353515625" height="102"/></g><g transform="translate(-110,-54) scale(1,1)"><path fill="none" stroke="#000000" d="M 752 224 L 824.2353515625 224 L 824.2353515625 326 L 752 326 L 752 224 Z Z" stroke-miterlimit="10"/></g><g transform="translate(-110,-54) scale(1,1)"><path fill="none" stroke="#000000" d="M 752 249 L 824.2353515625 249" stroke-miterlimit="10"/></g><g transform="translate(-110,-54) scale(1,1)"><path fill="none" stroke="#000000" d="M 752 317 L 824.2353515625 317" stroke-miterlimit="10"/></g><g transform="translate(-110,-54) scale(1,1)"><g><path fill="none" stroke="none"/><text fill="#000000" stroke="none" font-family="Arial" font-size="13px" font-style="normal" font-weight="bold" text-decoration="none" x="764.266357421875" y="243.5">Etudiant</text></g></g><g transform="translate(-110,-54) scale(1,1)"><g><path fill="none" stroke="none"/><text fill="#000000" stroke="none" font-family="Arial" font-size="13px" font-style="normal" font-weight="normal" text-decoration="none" x="757" y="266.5">+nom</text></g></g><g transform="translate(-110,-54) scale(1,1)"><g><path fill="none" stroke="none"/><text fill="#000000" stroke="none" font-family="Arial" font-size="13px" font-style="normal" font-weight="normal" text-decoration="none" x="757" y="281.5">+email</text></g></g><g transform="translate(-110,-54) scale(1,1)"><g><path fill="none" stroke="none"/><text fill="#000000" stroke="none" font-family="Arial" font-size="13px" font-style="normal" font-weight="normal" text-decoration="none" x="757" y="296.5">+phone</text></g></g><g transform="translate(-110,-54) scale(1,1)"><g><path fill="none" stroke="none"/><text fill="#000000" stroke="none" font-family="Arial" font-size="13px" font-style="normal" font-weight="normal" text-decoration="none" x="757" y="311.5">+adresse</text></g></g><g transform="translate(-110,-54) scale(1,1)"><path fill="none" stroke="#000000" d="M 379 223 L 386 122" stroke-miterlimit="10"/></g><g transform="translate(-110,-54) scale(1,1)"><g><path fill="none" stroke="none"/><text fill="#000000" stroke="none" font-family="Arial" font-size="13px" font-style="normal" font-weight="normal" text-decoration="none" x="355" y="172.5">+1 .. *</text></g></g><g transform="translate(-110,-54) scale(1,1)"><path fill="none" stroke="#000000" d="M 416 281 L 535 276" stroke-miterlimit="10"/></g><g transform="translate(-110,-54) scale(1,1)"><g><path fill="none" stroke="none"/><text fill="#000000" stroke="none" font-family="Arial" font-size="13px" font-style="normal" font-weight="normal" text-decoration="none" x="456.5" y="269.5">+1 .. *</text></g></g><g transform="translate(-110,-54) scale(1,1)"><path fill="none" stroke="#000000" d="M 379 431 L 377 342" stroke-miterlimit="10"/></g><g transform="translate(-110,-54) scale(1,1)"><g><path fill="none" stroke="none"/><text fill="#000000" stroke="none" font-family="Arial" font-size="13px" font-style="normal" font-weight="normal" text-decoration="none" x="348.5" y="392.5">+*.. *</text></g></g><g transform="translate(-110,-54) scale(1,1)"><path fill="none" stroke="#000000" d="M 203 283 L 335 282" stroke-miterlimit="10"/></g><g transform="translate(-110,-54) scale(1,1)"><g><path fill="none" stroke="none"/><text fill="#000000" stroke="none" font-family="Arial" font-size="13px" font-style="normal" font-weight="normal" text-decoration="none" x="255.5" y="273.5">+*..1</text></g></g><g transform="translate(-110,-54) scale(1,1)"><path fill="none" stroke="#000000" d="M 609 295 L 672 328 L 751 292" stroke-miterlimit="10"/></g><g transform="translate(-110,-54) scale(1,1)"><g><path fill="none" stroke="none"/><text fill="#000000" stroke="none" font-family="Arial" font-size="13px" font-style="normal" font-weight="normal" text-decoration="none" x="654.5" y="315.5">+*.. *</text></g></g><g transform="translate(-110,-54) scale(1,1)"><rect fill="#C0C0C0" stroke="none" x="639" y="335" width="77.6181640625" height="57" opacity="0.2"/></g><g transform="translate(-110,-54) scale(1,1)"><rect fill="#ffffff" stroke="none" x="632" y="328" width="77.6181640625" height="57"/></g><g transform="translate(-110,-54) scale(1,1)"><path fill="none" stroke="#000000" d="M 632 328 L 709.6181640625 328 L 709.6181640625 385 L 632 385 L 632 328 Z Z" stroke-miterlimit="10"/></g><g transform="translate(-110,-54) scale(1,1)"><path fill="none" stroke="#000000" d="M 632 353 L 709.6181640625 353" stroke-miterlimit="10"/></g><g transform="translate(-110,-54) scale(1,1)"><path fill="none" stroke="#000000" d="M 632 376 L 709.6181640625 376" stroke-miterlimit="10"/></g><g transform="translate(-110,-54) scale(1,1)"><g><path fill="none" stroke="none"/><text fill="#000000" stroke="none" font-family="Arial" font-size="13px" font-style="normal" font-weight="bold" text-decoration="none" x="639.73095703125" y="347.5">application</text></g></g><g transform="translate(-110,-54) scale(1,1)"><g><path fill="none" stroke="none"/><text fill="#000000" stroke="none" font-family="Arial" font-size="13px" font-style="normal" font-weight="normal" text-decoration="none" x="637" y="370.5">+C.V</text></g></g></g></svg>