<svg version="1.1" xmlns="http://www.w3.org/2000/svg" xmlns:xlink="http://www.w3.org/1999/xlink" width="679.13623046875" height="468"><defs/><g><text fill="#eeeeee" stroke="none" font-family="Arial" font-size="24px" font-style="normal" font-weight="normal" text-decoration="none" x="0" y="0">UNREGISTERED</text><text fill="#eeeeee" stroke="none" font-family="Arial" font-size="24px" font-style="normal" font-weight="normal" text-decoration="none" x="0" y="30">UNREGISTERED</text><text fill="#eeeeee" stroke="none" font-family="Arial" font-size="24px" font-style="normal" font-weight="normal" text-decoration="none" x="0" y="60">UNREGISTERED</text><text fill="#eeeeee" stroke="none" font-family="Arial" font-size="24px" font-style="normal" font-weight="normal" text-decoration="none" x="0" y="90">UNREGISTERED</text><text fill="#eeeeee" stroke="none" font-family="Arial" font-size="24px" font-style="normal" font-weight="normal" text-decoration="none" x="0" y="120">UNREGISTERED</text><text fill="#eeeeee" stroke="none" font-family="Arial" font-size="24px" font-style="normal" font-weight="normal" text-decoration="none" x="0" y="150">UNREGISTERED</text><text fill="#eeeeee" stroke="none" font-family="Arial" font-size="24px" font-style="normal" font-weight="normal" text-decoration="none" x="0" y="180">UNREGISTERED</text><text fill="#eeeeee" stroke="none" font-family="Arial" font-size="24px" font-style="normal" font-weight="normal" text-decoration="none" x="0" y="210">UNREGISTERED</text><text fill="#eeeeee" stroke="none" font-family="Arial" font-size="24px" font-style="normal" font-weight="normal" text-decoration="none" x="0" y="240">UNREGISTERED</text><text fill="#eeeeee" stroke="none" font-family="Arial" font-size="24px" font-style="normal" font-weight="normal" text-decoration="none" x="0" y="270">UNREGISTERED</text><text fill="#eeeeee" stroke="none" font-family="Arial" font-size="24px" font-style="normal" font-weight="normal" text-decoration="none" x="0" y="300">UNREGISTERED</text><text fill="#eeeeee" stroke="none" font-family="Arial" font-size="24px" font-style="normal" font-weight="normal" text-decoration="none" x="0" y="330">UNREGISTERED</text><text fill="#eeeeee" stroke="none" font-family="Arial" font-size="24px" font-style="normal" font-weight="normal" text-decoration="none" x="0" y="360">UNREGISTERED</text><text fill="#eeeeee" stroke="none" font-family="Arial" font-size="24px" font-style="normal" font-weight="normal" text-decoration="none" x="0" y="390">UNREGISTERED</text><text fill="#eeeeee" stroke="none" font-family="Arial" font-size="24px" font-style="normal" font-weight="normal" text-decoration="none" x="0" y="420">UNREGISTERED</text><text fill="#eeeeee" stroke="none" font-family="Arial" font-size="24px" font-style="normal" font-weight="normal" text-decoration="none" x="0" y="450">UNREGISTERED</text><text fill="#eeeeee" stroke="none" font-family="Arial" font-size="24px" font-style="normal" font-weight="normal" text-decoration="none" x="200" y="0">UNREGISTERED</text><text fill="#eeeeee" stroke="none" font-family="Arial" font-size="24px" font-style="normal" font-weight="normal" text-decoration="none" x="200" y="30">UNREGISTERED</text><text fill="#eeeeee" stroke="none" font-family="Arial" font-size="24px" font-style="normal" font-weight="normal" text-decoration="none" x="200" y="60">UNREGISTERED</text><text fill="#eeeeee" stroke="none" font-family="Arial" font-size="24px" font-style="normal" font-weight="normal" text-decoration="none" x="200" y="90">UNREGISTERED</text><text fill="#eeeeee" stroke="none" font-family="Arial" font-size="24px" font-style="normal" font-weight="normal" text-decoration="none" x="200" y="120">UNREGISTERED</text><text fill="#eeeeee" stroke="none" font-family="Arial" font-size="24px" font-style="normal" font-weight="normal" text-decoration="none" x="200" y="150">UNREGISTERED</text><text fill="#eeeeee" stroke="none" font-family="Arial" font-size="24px" font-style="normal" font-weight="normal" text-decoration="none" x="200" y="180">UNREGISTERED</text><text fill="#eeeeee" stroke="none" font-family="Arial" font-size="24px" font-style="normal" font-weight="normal" text-decoration="none" x="200" y="210">UNREGISTERED</text><text fill="#eeeeee" stroke="none" font-family="Arial" font-size="24px" font-style="normal" font-weight="normal" text-decoration="none" x="200" y="240">UNREGISTERED</text><text fill="#eeeeee" stroke="none" font-family="Arial" font-size="24px" font-style="normal" font-weight="normal" text-decoration="none" x="200" y="270">UNREGISTERED</text><text fill="#eeeeee" stroke="none" font-family="Arial" font-size="24px" font-style="normal" font-weight="normal" text-decoration="none" x="200" y="300">UNREGISTERED</text><text fill="#eeeeee" stroke="none" font-family="Arial" font-size="24px" font-style="normal" font-weight="normal" text-decoration="none" x="200" y="330">UNREGISTERED</text><text fill="#eeeeee" stroke="none" font-family="Arial" font-size="24px" font-style="normal" font-weight="normal" text-decoration="none" x="200" y="360">UNREGISTERED</text><text fill="#eeeeee" stroke="none" font-family="Arial" font-size="24px" font-style="normal" font-weight="normal" text-decoration="none" x="200" y="390">UNREGISTERED</text><text fill="#eeeeee" stroke="none" font-family="Arial" font-size="24px" font-style="normal" font-weight="normal" text-decoration="none" x="200" y="420">UNREGISTERED</text><text fill="#eeeeee" stroke="none" font-family="Arial" font-size="24px" font-style="normal" font-weight="normal" text-decoration="none" x="200" y="450">UNREGISTERED</text><text fill="#eeeeee" stroke="none" font-family="Arial" font-size="24px" font-style="normal" font-weight="normal" text-decoration="none" x="400" y="0">UNREGISTERED</text><text fill="#eeeeee" stroke="none" font-family="Arial" font-size="24px" font-style="normal" font-weight="normal" text-decoration="none" x="400" y="30">UNREGISTERED</text><text fill="#eeeeee" stroke="none" font-family="Arial" font-size="24px" font-style="normal" font-weight="normal" text-decoration="none" x="400" y="60">UNREGISTERED</text><text fill="#eeeeee" stroke="none" font-family="Arial" font-size="24px" font-style="normal" font-weight="normal" text-decoration="none" x="400" y="90">UNREGISTERED</text><text fill="#eeeeee" stroke="none" font-family="Arial" font-size="24px" font-style="normal" font-weight="normal" text-decoration="none" x="400" y="120">UNREGISTERED</text><text fill="#eeeeee" stroke="none" font-family="Arial" font-size="24px" font-style="normal" font-weight="normal" text-decoration="none" x="400" y="150">UNREGISTERED</text><text fill="#eeeeee" stroke="none" font-family="Arial" font-size="24px" font-style="normal" font-weight="normal" text-decoration="none" x="400" y="180">UNREGISTERED</text><text fill="#eeeeee" stroke="none" font-family="Arial" font-size="24px" font-style="normal" font-weight="normal" text-decoration="none" x="400" y="210">UNREGISTERED</text><text fill="#eeeeee" stroke="none" font-family="Arial" font-size="24px" font-style="normal" font-weight="normal" text-decoration="none" x="400" y="240">UNREGISTERED</text><text fill="#eeeeee" stroke="none" font-family="Arial" font-size="24px" font-style="normal" font-weight="normal" text-decoration="none" x="400" y="270">UNREGISTERED</text><text fill="#eeeeee" stroke="none" font-family="Arial" font-size="24px" font-style="normal" font-weight="normal" text-decoration="none" x="400" y="300">UNREGISTERED</text><text fill="#eeeeee" stroke="none" font-family="Arial" font-size="24px" font-style="normal" font-weight="normal" text-decoration="none" x="400" y="330">UNREGISTERED</text><text fill="#eeeeee" stroke="none" font-family="Arial" font-size="24px" font-style="normal" font-weight="normal" text-decoration="none" x="400" y="360">UNREGISTERED</text><text fill="#eeeeee" stroke="none" font-family="Arial" font-size="24px" font-style="normal" font-weight="normal" text-decoration="none" x="400" y="390">UNREGISTERED</text><text fill="#eeeeee" stroke="none" font-family="Arial" font-size="24px" font-style="normal" font-weight="normal" text-decoration="none" x="400" y="420">UNREGISTERED</text><text fill="#eeeeee" stroke="none" font-family="Arial" font-size="24px" font-style="normal" font-weight="normal" text-decoration="none" x="400" y="450">UNREGISTERED</text><text fill="#eeeeee" stroke="none" font-family="Arial" font-size="24px" font-style="normal" font-weight="normal" text-decoration="none" x="600" y="0">UNREGISTERED</text><text fill="#eeeeee" stroke="none" font-family="Arial" font-size="24px" font-style="normal" font-weight="normal" text-decoration="none" x="600" y="30">UNREGISTERED</text><text fill="#eeeeee" stroke="none" font-family="Arial" font-size="24px" font-style="normal" font-weight="normal" text-decoration="none" x="600" y="60">UNREGISTERED</text><text fill="#eeeeee" stroke="none" font-family="Arial" font-size="24px" font-style="normal" font-weight="normal" text-decoration="none" x="600" y="90">UNREGISTERED</text><text fill="#eeeeee" stroke="none" font-family="Arial" font-size="24px" font-style="normal" font-weight="normal" text-decoration="none" x="600" y="120">UNREGISTERED</text><text fill="#eeeeee" stroke="none" font-family="Arial" font-size="24px" font-style="normal" font-weight="normal" text-decoration="none" x="600" y="150">UNREGISTERED</text><text fill="#eeeeee" stroke="none" font-family="Arial" font-size="24px" font-style="normal" font-weight="normal" text-decoration="none" x="600" y="180">UNREGISTERED</text><text fill="#eeeeee" stroke="none" font-family="Arial" font-size="24px" font-style="normal" font-weight="normal" text-decoration="none" x="600" y="210">UNREGISTERED</text><text fill="#eeeeee" stroke="none" font-family="Arial" font-size="24px" font-style="normal" font-weight="normal" text-decoration="none" x="600" y="240">UNREGISTERED</text><text fill="#eeeeee" stroke="none" font-family="Arial" font-size="24px" font-style="normal" font-weight="normal" text-decoration="none" x="600" y="270">UNREGISTERED</text><text fill="#eeeeee" stroke="none" font-family="Arial" font-size="24px" font-style="normal" font-weight="normal" text-decoration="none" x="600" y="300">UNREGISTERED</text><text fill="#eeeeee" stroke="none" font-family="Arial" font-size="24px" font-style="normal" font-weight="normal" text-decoration="none" x="600" y="330">UNREGISTERED</text><text fill="#eeeeee" stroke="none" font-family="Arial" font-size="24px" font-style="normal" font-weight="normal" text-decoration="none" x="600" y="360">UNREGISTERED</text><text fill="#eeeeee" stroke="none" font-family="Arial" font-size="24px" font-style="normal" font-weight="normal" text-decoration="none" x="600" y="390">UNREGISTERED</text><text fill="#eeeeee" stroke="none" font-family="Arial" font-size="24px" font-style="normal" font-weight="normal" text-decoration="none" x="600" y="420">UNREGISTERED</text><text fill="#eeeeee" stroke="none" font-family="Arial" font-size="24px" font-style="normal" font-weight="normal" text-decoration="none" x="600" y="450">UNREGISTERED</text><g transform="translate(-110,-62) scale(1,1)"><rect fill="#C0C0C0" stroke="none" x="343" y="231" width="79.458984375" height="132" opacity="0.2"/></g><g transform="translate(-110,-62) scale(1,1)"><rect fill="#ffffff" stroke="none" x="336" y="224" width="79.458984375" height="132"/></g><g transform="translate(-110,-62) scale(1,1)"><path fill="none" stroke="#000000" d="M 336 224 L 415.458984375 224 L 415.458984375 356 L 336 356 L 336 224 Z Z" stroke-miterlimit="10"/></g><g transform="translate(-110,-62) scale(1,1)"><path fill="none" stroke="#000000" d="M 336 249 L 415.458984375 249" stroke-miterlimit="10"/></g><g transform="translate(-110,-62) scale(1,1)"><path fill="none" stroke="#000000" d="M 336 317 L 415.458984375 317" stroke-miterlimit="10"/></g><g transform="translate(-110,-62) scale(1,1)"><g><path fill="none" stroke="none"/><text fill="#000000" stroke="none" font-family="Arial" font-size="13px" font-style="normal" font-weight="bold" text-decoration="none" x="361.399658203125" y="243.5">Offre</text></g></g><g transform="translate(-110,-62) scale(1,1)"><g><path fill="none" stroke="none"/><text fill="#000000" stroke="none" font-family="Arial" font-size="13px" font-style="normal" font-weight="normal" text-decoration="none" x="341" y="266.5">+IdOffre</text></g></g><g transform="translate(-110,-62) scale(1,1)"><g><path fill="none" stroke="none"/><text fill="#000000" stroke="none" font-family="Arial" font-size="13px" font-style="normal" font-weight="normal" text-decoration="none" x="341" y="281.5">+subject</text></g></g><g transform="translate(-110,-62) scale(1,1)"><g><path fill="none" stroke="none"/><text fill="#000000" stroke="none" font-family="Arial" font-size="13px" font-style="normal" font-weight="normal" text-decoration="none" x="341" y="296.5">+description</text></g></g><g transform="translate(-110,-62) scale(1,1)"><g><path fill="none" stroke="none"/><text fill="#000000" stroke="none" font-family="Arial" font-size="13px" font-style="normal" font-weight="normal" text-decoration="none" x="341" y="311.5">+periode</text></g></g><g transform="translate(-110,-62) scale(1,1)"><rect fill="#C0C0C0" stroke="none" x="207" y="455" width="72.2353515625" height="72" opacity="0.2"/></g><g transform="translate(-110,-62) scale(1,1)"><rect fill="#ffffff" stroke="none" x="200" y="448" width="72.2353515625" height="72"/></g><g transform="translate(-110,-62) scale(1,1)"><path fill="none" stroke="#000000" d="M 200 448 L 272.2353515625 448 L 272.2353515625 520 L 200 520 L 200 448 Z Z" stroke-miterlimit="10"/></g><g transform="translate(-110,-62) scale(1,1)"><path fill="none" stroke="#000000" d="M 200 473 L 272.2353515625 473" stroke-miterlimit="10"/></g><g transform="translate(-110,-62) scale(1,1)"><path fill="none" stroke="#000000" d="M 200 511 L 272.2353515625 511" stroke-miterlimit="10"/></g><g transform="translate(-110,-62) scale(1,1)"><g><path fill="none" stroke="none"/><text fill="#000000" stroke="none" font-family="Arial" font-size="13px" font-style="normal" font-weight="bold" text-decoration="none" x="215.15771484375" y="467.5">Techno</text></g></g><g transform="translate(-110,-62) scale(1,1)"><g><path fill="none" stroke="none"/><text fill="#000000" stroke="none" font-family="Arial" font-size="13px" font-style="normal" font-weight="normal" text-decoration="none" x="205" y="490.5">+IdTechno</text></g></g><g transform="translate(-110,-62) scale(1,1)"><g><path fill="none" stroke="none"/><text fill="#000000" stroke="none" font-family="Arial" font-size="13px" font-style="normal" font-weight="normal" text-decoration="none" x="205" y="505.5">+nom</text></g></g><g transform="translate(-110,-62) scale(1,1)"><rect fill="#C0C0C0" stroke="none" x="503" y="319" width="105.49072265625" height="87" opacity="0.2"/></g><g transform="translate(-110,-62) scale(1,1)"><rect fill="#ffffff" stroke="none" x="496" y="312" width="105.49072265625" height="87"/></g><g transform="translate(-110,-62) scale(1,1)"><path fill="none" stroke="#000000" d="M 496 312 L 601.49072265625 312 L 601.49072265625 399 L 496 399 L 496 312 Z Z" stroke-miterlimit="10"/></g><g transform="translate(-110,-62) scale(1,1)"><path fill="none" stroke="#000000" d="M 496 337 L 601.49072265625 337" stroke-miterlimit="10"/></g><g transform="translate(-110,-62) scale(1,1)"><path fill="none" stroke="#000000" d="M 496 390 L 601.49072265625 390" stroke-miterlimit="10"/></g><g transform="translate(-110,-62) scale(1,1)"><g><path fill="none" stroke="none"/><text fill="#000000" stroke="none" font-family="Arial" font-size="13px" font-style="normal" font-weight="bold" text-decoration="none" x="520.561767578125" y="331.5">Demande</text></g></g><g transform="translate(-110,-62) scale(1,1)"><g><path fill="none" stroke="none"/><text fill="#000000" stroke="none" font-family="Arial" font-size="13px" font-style="normal" font-weight="normal" text-decoration="none" x="501" y="354.5">+IdOffre</text></g></g><g transform="translate(-110,-62) scale(1,1)"><g><path fill="none" stroke="none"/><text fill="#000000" stroke="none" font-family="Arial" font-size="13px" font-style="normal" font-weight="normal" text-decoration="none" x="501" y="369.5">+IdEtudiant</text></g></g><g transform="translate(-110,-62) scale(1,1)"><g><path fill="none" stroke="none"/><text fill="#000000" stroke="none" font-family="Arial" font-size="13px" font-style="normal" font-weight="normal" text-decoration="none" x="501" y="384.5">+dateApplication</text></g></g><g transform="translate(-110,-62) scale(1,1)"><rect fill="#C0C0C0" stroke="none" x="127" y="247" width="86.6826171875" height="102" opacity="0.2"/></g><g transform="translate(-110,-62) scale(1,1)"><rect fill="#ffffff" stroke="none" x="120" y="240" width="86.6826171875" height="102"/></g><g transform="translate(-110,-62) scale(1,1)"><path fill="none" stroke="#000000" d="M 120 240 L 206.6826171875 240 L 206.6826171875 342 L 120 342 L 120 240 Z Z" stroke-miterlimit="10"/></g><g transform="translate(-110,-62) scale(1,1)"><path fill="none" stroke="#000000" d="M 120 265 L 206.6826171875 265" stroke-miterlimit="10"/></g><g transform="translate(-110,-62) scale(1,1)"><path fill="none" stroke="#000000" d="M 120 333 L 206.6826171875 333" stroke-miterlimit="10"/></g><g transform="translate(-110,-62) scale(1,1)"><g><path fill="none" stroke="none"/><text fill="#000000" stroke="none" font-family="Arial" font-size="13px" font-style="normal" font-weight="bold" text-decoration="none" x="133.716796875" y="259.5">Entreprise</text></g></g><g transform="translate(-110,-62) scale(1,1)"><g><path fill="none" stroke="none"/><text fill="#000000" stroke="none" font-family="Arial" font-size="13px" font-style="normal" font-weight="normal" text-decoration="none" x="125" y="282.5">+IdEntreprise</text></g></g><g transform="translate(-110,-62) scale(1,1)"><g><path fill="none" stroke="none"/><text fill="#000000" stroke="none" font-family="Arial" font-size="13px" font-style="normal" font-weight="normal" text-decoration="none" x="125" y="297.5">+nom</text></g></g><g transform="translate(-110,-62) scale(1,1)"><g><path fill="none" stroke="none"/><text fill="#000000" stroke="none" font-family="Arial" font-size="13px" font-style="normal" font-weight="normal" text-decoration="none" x="125" y="312.5">+description</text></g></g><g transform="translate(-110,-62) scale(1,1)"><g><path fill="none" stroke="none"/><text fill="#000000" stroke="none" font-family="Arial" font-size="13px" font-style="normal" font-weight="normal" text-decoration="none" x="125" y="327.5">+adresse</text></g></g><g transform="translate(-110,-62) scale(1,1)"><rect fill="#C0C0C0" stroke="none" x="711" y="223" width="75.13623046875" height="147" opacity="0.2"/></g><g transform="translate(-110,-62) scale(1,1)"><rect fill="#ffffff" stroke="none" x="704" y="216" width="75.13623046875" height="147"/></g><g transform="translate(-110,-62) scale(1,1)"><path fill="none" stroke="#000000" d="M 704 216 L 779.13623046875 216 L 779.13623046875 363 L 704 363 L 704 216 Z Z" stroke-miterlimit="10"/></g><g transform="translate(-110,-62) scale(1,1)"><path fill="none" stroke="#000000" d="M 704 241 L 779.13623046875 241" stroke-miterlimit="10"/></g><g transform="translate(-110,-62) scale(1,1)"><path fill="none" stroke="#000000" d="M 704 354 L 779.13623046875 354" stroke-miterlimit="10"/></g><g transform="translate(-110,-62) scale(1,1)"><g><path fill="none" stroke="none"/><text fill="#000000" stroke="none" font-family="Arial" font-size="13px" font-style="normal" font-weight="bold" text-decoration="none" x="717.716796875" y="235.5">Etudiant</text></g></g><g transform="translate(-110,-62) scale(1,1)"><g><path fill="none" stroke="none"/><text fill="#000000" stroke="none" font-family="Arial" font-size="13px" font-style="normal" font-weight="normal" text-decoration="none" x="709" y="258.5">+IdEtudiant</text></g></g><g transform="translate(-110,-62) scale(1,1)"><g><path fill="none" stroke="none"/><text fill="#000000" stroke="none" font-family="Arial" font-size="13px" font-style="normal" font-weight="normal" text-decoration="none" x="709" y="273.5">+nom</text></g></g><g transform="translate(-110,-62) scale(1,1)"><g><path fill="none" stroke="none"/><text fill="#000000" stroke="none" font-family="Arial" font-size="13px" font-style="normal" font-weight="normal" text-decoration="none" x="709" y="288.5">+email</text></g></g><g transform="translate(-110,-62) scale(1,1)"><g><path fill="none" stroke="none"/><text fill="#000000" stroke="none" font-family="Arial" font-size="13px" font-style="normal" font-weight="normal" text-decoration="none" x="709" y="303.5">+phone</text></g></g><g transform="translate(-110,-62) scale(1,1)"><g><path fill="none" stroke="none"/><text fill="#000000" stroke="none" font-family="Arial" font-size="13px" font-style="normal" font-weight="normal" text-decoration="none" x="709" y="318.5">+adresse</text></g></g><g transform="translate(-110,-62) scale(1,1)"><g><path fill="none" stroke="none"/><text fill="#000000" stroke="none" font-family="Arial" font-size="13px" font-style="normal" font-weight="normal" text-decoration="none" x="709" y="333.5">+C.V</text></g></g><g transform="translate(-110,-62) scale(1,1)"><g><path fill="none" stroke="none"/><text fill="#000000" stroke="none" font-family="Arial" font-size="13px" font-style="normal" font-weight="normal" text-decoration="none" x="709" y="348.5">+L.M</text></g></g><g transform="translate(-110,-62) scale(1,1)"><path fill="none" stroke="#000000" d="M 416 295 L 555 312 L 703 294" stroke-miterlimit="10"/></g><g transform="translate(-110,-62) scale(1,1)"><g><path fill="none" stroke="none"/><text fill="#000000" stroke="none" font-family="Arial" font-size="13px" font-style="normal" font-weight="normal" text-decoration="none" x="536.58544921875" y="303.5">+* .. *</text></g></g><g transform="translate(-110,-62) scale(1,1)"><path fill="none" stroke="#000000" d="M 273 463 L 344 424 L 360 357" stroke-miterlimit="10"/></g><g transform="translate(-110,-62) scale(1,1)"><g><path fill="none" stroke="none"/><text fill="#000000" stroke="none" font-family="Arial" font-size="13px" font-style="normal" font-weight="normal" text-decoration="none" x="314.227294921875" y="426.5">+*.. *</text></g></g><g transform="translate(-110,-62) scale(1,1)"><path fill="none" stroke="#000000" d="M 208 291 L 335 290" stroke-miterlimit="10"/></g><g transform="translate(-110,-62) scale(1,1)"><g><path fill="none" stroke="none"/><text fill="#000000" stroke="none" font-family="Arial" font-size="13px" font-style="normal" font-weight="normal" text-decoration="none" x="257.5" y="281.5">+*..1</text></g></g><g transform="translate(-110,-62) scale(1,1)"><rect fill="#C0C0C0" stroke="none" x="359" y="431" width="89.64697265625" height="72" opacity="0.2"/></g><g transform="translate(-110,-62) scale(1,1)"><rect fill="#ffffff" stroke="none" x="352" y="424" width="89.64697265625" height="72"/></g><g transform="translate(-110,-62) scale(1,1)"><path fill="none" stroke="#000000" d="M 352 424 L 441.64697265625 424 L 441.64697265625 496 L 352 496 L 352 424 Z Z" stroke-miterlimit="10"/></g><g transform="translate(-110,-62) scale(1,1)"><path fill="none" stroke="#000000" d="M 352 449 L 441.64697265625 449" stroke-miterlimit="10"/></g><g transform="translate(-110,-62) scale(1,1)"><path fill="none" stroke="#000000" d="M 352 487 L 441.64697265625 487" stroke-miterlimit="10"/></g><g transform="translate(-110,-62) scale(1,1)"><g><path fill="none" stroke="none"/><text fill="#000000" stroke="none" font-family="Arial" font-size="13px" font-style="normal" font-weight="bold" text-decoration="none" x="359.369140625" y="443.5">Offre-Techno</text></g></g><g transform="translate(-110,-62) scale(1,1)"><g><path fill="none" stroke="none"/><text fill="#000000" stroke="none" font-family="Arial" font-size="13px" font-style="normal" font-weight="normal" text-decoration="none" x="357" y="466.5">+IdOffre</text></g></g><g transform="translate(-110,-62) scale(1,1)"><g><path fill="none" stroke="none"/><text fill="#000000" stroke="none" font-family="Arial" font-size="13px" font-style="normal" font-weight="normal" text-decoration="none" x="357" y="481.5">+IdTechno</text></g></g><g transform="translate(-110,-62) scale(1,1)"><rect fill="#C0C0C0" stroke="none" x="263" y="79" width="72.2353515625" height="72" opacity="0.2"/></g><g transform="translate(-110,-62) scale(1,1)"><rect fill="#ffffff" stroke="none" x="256" y="72" width="72.2353515625" height="72"/></g><g transform="translate(-110,-62) scale(1,1)"><path fill="none" stroke="#000000" d="M 256 72 L 328.2353515625 72 L 328.2353515625 144 L 256 144 L 256 72 Z Z" stroke-miterlimit="10"/></g><g transform="translate(-110,-62) scale(1,1)"><path fill="none" stroke="#000000" d="M 256 97 L 328.2353515625 97" stroke-miterlimit="10"/></g><g transform="translate(-110,-62) scale(1,1)"><path fill="none" stroke="#000000" d="M 256 135 L 328.2353515625 135" stroke-miterlimit="10"/></g><g transform="translate(-110,-62) scale(1,1)"><g><path fill="none" stroke="none"/><text fill="#000000" stroke="none" font-family="Arial" font-size="13px" font-style="normal" font-weight="bold" text-decoration="none" x="268.26953125" y="91.5">Regions</text></g></g><g transform="translate(-110,-62) scale(1,1)"><g><path fill="none" stroke="none"/><text fill="#000000" stroke="none" font-family="Arial" font-size="13px" font-style="normal" font-weight="normal" text-decoration="none" x="261" y="114.5">+IdRegion</text></g></g><g transform="translate(-110,-62) scale(1,1)"><g><path fill="none" stroke="none"/><text fill="#000000" stroke="none" font-family="Arial" font-size="13px" font-style="normal" font-weight="normal" text-decoration="none" x="261" y="129.5">+nom</text></g></g><g transform="translate(-110,-62) scale(1,1)"><path fill="none" stroke="#000000" d="M 309 145 L 344 223" stroke-miterlimit="10"/></g><g transform="translate(-110,-62) scale(1,1)"><g><path fill="none" stroke="none"/><text fill="#000000" stroke="none" font-family="Arial" font-size="13px" font-style="normal" font-weight="normal" text-decoration="none" x="325.5" y="183.5">+*..1</text></g></g></g></svg>